<mxfile host="65bd71144e">
    <diagram id="jn-3iFbRJp2x5c3l6RlT" name="Observability">
        <mxGraphModel dx="2667" dy="1873" grid="1" gridSize="10" guides="1" tooltips="1" connect="1" arrows="1" fold="1" page="0" pageScale="1" pageWidth="1600" pageHeight="900" math="0" shadow="0">
            <root>
                <mxCell id="0"/>
                <mxCell id="1" parent="0"/>
                <mxCell id="NXQ0ICeZuz957poQZoaz-27" value="" style="rounded=1;whiteSpace=wrap;html=1;fontSize=16;fillColor=#ffe6cc;strokeColor=#d79b00;align=center;" parent="1" vertex="1">
                    <mxGeometry x="-440" y="-440" width="460" height="783" as="geometry"/>
                </mxCell>
                <mxCell id="M-8iL-e8hG9gWh-XNSYT-1" value="" style="rounded=0;whiteSpace=wrap;html=1;fillColor=#dae8fc;strokeColor=#6c8ebf;" parent="1" vertex="1">
                    <mxGeometry x="-400" y="-300" width="380" height="610" as="geometry"/>
                </mxCell>
                <mxCell id="NXQ0ICeZuz957poQZoaz-19" value="K8s-cp" style="rounded=1;whiteSpace=wrap;html=1;fontSize=16;fillColor=#dae8fc;strokeColor=#6c8ebf;" parent="1" vertex="1">
                    <mxGeometry x="360" y="-200" width="400" height="230" as="geometry"/>
                </mxCell>
                <mxCell id="NXQ0ICeZuz957poQZoaz-50" style="edgeStyle=orthogonalEdgeStyle;rounded=0;orthogonalLoop=1;jettySize=auto;html=1;fontSize=12;startSize=8;endSize=8;curved=1;dashed=1;" parent="1" source="NXQ0ICeZuz957poQZoaz-21" target="NXQ0ICeZuz957poQZoaz-48" edge="1">
                    <mxGeometry relative="1" as="geometry"/>
                </mxCell>
                <mxCell id="NXQ0ICeZuz957poQZoaz-21" value="fluent-bit" style="rounded=1;whiteSpace=wrap;html=1;fontSize=16;" parent="1" vertex="1">
                    <mxGeometry x="380" y="-180" width="120" height="60" as="geometry"/>
                </mxCell>
                <mxCell id="NXQ0ICeZuz957poQZoaz-23" value="vmagent" style="rounded=1;whiteSpace=wrap;html=1;fontSize=16;" parent="1" vertex="1">
                    <mxGeometry x="380" y="-50" width="120" height="60" as="geometry"/>
                </mxCell>
                <mxCell id="NXQ0ICeZuz957poQZoaz-24" value="K8s-wrk" style="rounded=1;whiteSpace=wrap;html=1;fontSize=16;fillColor=#d5e8d4;strokeColor=#82b366;" parent="1" vertex="1">
                    <mxGeometry x="360" y="90" width="400" height="230" as="geometry"/>
                </mxCell>
                <mxCell id="NXQ0ICeZuz957poQZoaz-49" style="edgeStyle=orthogonalEdgeStyle;rounded=0;orthogonalLoop=1;jettySize=auto;html=1;fontSize=12;startSize=8;endSize=8;curved=1;dashed=1;" parent="1" source="NXQ0ICeZuz957poQZoaz-25" target="NXQ0ICeZuz957poQZoaz-48" edge="1">
                    <mxGeometry relative="1" as="geometry"/>
                </mxCell>
                <mxCell id="NXQ0ICeZuz957poQZoaz-25" value="fluent-bit" style="rounded=1;whiteSpace=wrap;html=1;fontSize=16;" parent="1" vertex="1">
                    <mxGeometry x="380" y="110" width="120" height="60" as="geometry"/>
                </mxCell>
                <mxCell id="NXQ0ICeZuz957poQZoaz-26" value="vmagent" style="rounded=1;whiteSpace=wrap;html=1;fontSize=16;" parent="1" vertex="1">
                    <mxGeometry x="380" y="240" width="120" height="60" as="geometry"/>
                </mxCell>
                <mxCell id="NXQ0ICeZuz957poQZoaz-40" value="Optional longterm storage" style="edgeStyle=orthogonalEdgeStyle;rounded=0;orthogonalLoop=1;jettySize=auto;html=1;fontSize=12;startSize=8;endSize=8;" parent="1" source="NXQ0ICeZuz957poQZoaz-28" target="NXQ0ICeZuz957poQZoaz-38" edge="1">
                    <mxGeometry x="-0.3205" relative="1" as="geometry">
                        <Array as="points">
                            <mxPoint x="-750" y="240"/>
                        </Array>
                        <mxPoint as="offset"/>
                    </mxGeometry>
                </mxCell>
                <mxCell id="NXQ0ICeZuz957poQZoaz-28" value="VictoriaMetrics" style="rounded=1;whiteSpace=wrap;html=1;fontSize=16;" parent="1" vertex="1">
                    <mxGeometry x="-350" y="190" width="260" height="100" as="geometry"/>
                </mxCell>
                <mxCell id="NXQ0ICeZuz957poQZoaz-31" style="edgeStyle=none;curved=1;rounded=0;orthogonalLoop=1;jettySize=auto;html=1;entryX=1.009;entryY=0.114;entryDx=0;entryDy=0;fontSize=12;startSize=8;endSize=8;entryPerimeter=0;" parent="1" source="NXQ0ICeZuz957poQZoaz-23" target="NXQ0ICeZuz957poQZoaz-28" edge="1">
                    <mxGeometry relative="1" as="geometry"/>
                </mxCell>
                <mxCell id="NXQ0ICeZuz957poQZoaz-32" style="edgeStyle=none;curved=1;rounded=0;orthogonalLoop=1;jettySize=auto;html=1;entryX=1;entryY=0.75;entryDx=0;entryDy=0;fontSize=12;startSize=8;endSize=8;" parent="1" source="NXQ0ICeZuz957poQZoaz-26" target="NXQ0ICeZuz957poQZoaz-28" edge="1">
                    <mxGeometry relative="1" as="geometry"/>
                </mxCell>
                <mxCell id="NXQ0ICeZuz957poQZoaz-39" value="Optional longterm storage" style="edgeStyle=orthogonalEdgeStyle;rounded=0;orthogonalLoop=1;jettySize=auto;html=1;fontSize=12;startSize=8;endSize=8;" parent="1" source="NXQ0ICeZuz957poQZoaz-33" target="NXQ0ICeZuz957poQZoaz-38" edge="1">
                    <mxGeometry x="-0.1164" relative="1" as="geometry">
                        <Array as="points">
                            <mxPoint x="-710" y="110"/>
                        </Array>
                        <mxPoint as="offset"/>
                    </mxGeometry>
                </mxCell>
                <mxCell id="NXQ0ICeZuz957poQZoaz-44" style="edgeStyle=orthogonalEdgeStyle;rounded=0;orthogonalLoop=1;jettySize=auto;html=1;fontSize=12;startSize=8;endSize=8;dashed=1;startArrow=classic;startFill=1;dashPattern=1 1;" parent="1" source="NXQ0ICeZuz957poQZoaz-33" target="NXQ0ICeZuz957poQZoaz-36" edge="1">
                    <mxGeometry relative="1" as="geometry">
                        <Array as="points">
                            <mxPoint x="-370" y="80"/>
                            <mxPoint x="-370" y="-120"/>
                            <mxPoint x="-215" y="-120"/>
                        </Array>
                    </mxGeometry>
                </mxCell>
                <mxCell id="NXQ0ICeZuz957poQZoaz-33" value="Grafana-loki" style="rounded=1;whiteSpace=wrap;html=1;fontSize=16;" parent="1" vertex="1">
                    <mxGeometry x="-350" y="70" width="260" height="100" as="geometry"/>
                </mxCell>
                <mxCell id="NXQ0ICeZuz957poQZoaz-34" style="edgeStyle=none;curved=1;rounded=0;orthogonalLoop=1;jettySize=auto;html=1;entryX=1;entryY=0.25;entryDx=0;entryDy=0;fontSize=12;startSize=8;endSize=8;exitX=0;exitY=0.75;exitDx=0;exitDy=0;" parent="1" source="NXQ0ICeZuz957poQZoaz-21" edge="1">
                    <mxGeometry relative="1" as="geometry">
                        <mxPoint x="380" y="-82.26415094339632" as="sourcePoint"/>
                        <mxPoint x="-90" y="135" as="targetPoint"/>
                    </mxGeometry>
                </mxCell>
                <mxCell id="NXQ0ICeZuz957poQZoaz-35" style="edgeStyle=none;curved=1;rounded=0;orthogonalLoop=1;jettySize=auto;html=1;entryX=1;entryY=0.75;entryDx=0;entryDy=0;fontSize=12;startSize=8;endSize=8;" parent="1" source="NXQ0ICeZuz957poQZoaz-25" target="NXQ0ICeZuz957poQZoaz-33" edge="1">
                    <mxGeometry relative="1" as="geometry"/>
                </mxCell>
                <mxCell id="NXQ0ICeZuz957poQZoaz-36" value="Grafana" style="image;aspect=fixed;html=1;points=[];align=center;fontSize=12;image=img/lib/azure2/other/Grafana.svg;imageBorder=none;labelBackgroundColor=none;" parent="1" vertex="1">
                    <mxGeometry x="-249" y="-276.4" width="68" height="52.800000000000004" as="geometry"/>
                </mxCell>
                <mxCell id="NXQ0ICeZuz957poQZoaz-38" value="self" style="ellipse;shape=cloud;whiteSpace=wrap;html=1;fontSize=16;" parent="1" vertex="1">
                    <mxGeometry x="-790" y="-173.6" width="120" height="80" as="geometry"/>
                </mxCell>
                <mxCell id="NXQ0ICeZuz957poQZoaz-43" style="edgeStyle=orthogonalEdgeStyle;rounded=0;orthogonalLoop=1;jettySize=auto;html=1;fontSize=12;startSize=8;endSize=8;dashed=1;startArrow=classic;startFill=1;dashPattern=1 1;" parent="1" source="NXQ0ICeZuz957poQZoaz-28" target="NXQ0ICeZuz957poQZoaz-36" edge="1">
                    <mxGeometry relative="1" as="geometry">
                        <Array as="points">
                            <mxPoint x="-380" y="220"/>
                            <mxPoint x="-380" y="-140"/>
                        </Array>
                    </mxGeometry>
                </mxCell>
                <mxCell id="NXQ0ICeZuz957poQZoaz-46" style="edgeStyle=none;curved=1;rounded=0;orthogonalLoop=1;jettySize=auto;html=1;fontSize=12;startSize=8;endSize=8;startArrow=classic;startFill=1;" parent="1" source="NXQ0ICeZuz957poQZoaz-45" target="NXQ0ICeZuz957poQZoaz-36" edge="1">
                    <mxGeometry relative="1" as="geometry"/>
                </mxCell>
                <mxCell id="NXQ0ICeZuz957poQZoaz-45" value="" style="sketch=0;outlineConnect=0;fontColor=#232F3E;gradientColor=none;fillColor=#232F3D;strokeColor=none;dashed=0;verticalLabelPosition=bottom;verticalAlign=top;align=center;html=1;fontSize=12;fontStyle=0;aspect=fixed;pointerEvents=1;shape=mxgraph.aws4.user;" parent="1" vertex="1">
                    <mxGeometry x="-240" y="-510" width="50" height="50" as="geometry"/>
                </mxCell>
                <mxCell id="NXQ0ICeZuz957poQZoaz-52" style="edgeStyle=none;curved=1;rounded=0;orthogonalLoop=1;jettySize=auto;html=1;fontSize=12;startSize=8;endSize=8;dashed=1;" parent="1" source="NXQ0ICeZuz957poQZoaz-48" target="NXQ0ICeZuz957poQZoaz-36" edge="1">
                    <mxGeometry relative="1" as="geometry"/>
                </mxCell>
                <mxCell id="NXQ0ICeZuz957poQZoaz-48" value="Opensearch&lt;br&gt;(external)" style="rounded=1;whiteSpace=wrap;html=1;fontSize=16;" parent="1" vertex="1">
                    <mxGeometry x="110" y="-300" width="140" height="100" as="geometry"/>
                </mxCell>
                <mxCell id="NXQ0ICeZuz957poQZoaz-51" value="&lt;b&gt;mon vm&lt;/b&gt;" style="text;html=1;strokeColor=none;fillColor=none;align=center;verticalAlign=middle;whiteSpace=wrap;rounded=0;fontSize=16;" parent="1" vertex="1">
                    <mxGeometry x="-390" y="-440" width="80" height="30" as="geometry"/>
                </mxCell>
                <mxCell id="NXQ0ICeZuz957poQZoaz-53" value="Optional" style="text;html=1;align=center;verticalAlign=middle;resizable=0;points=[];autosize=1;strokeColor=none;fillColor=none;fontSize=16;" parent="1" vertex="1">
                    <mxGeometry x="140" y="-330" width="80" height="30" as="geometry"/>
                </mxCell>
                <mxCell id="M-8iL-e8hG9gWh-XNSYT-3" value="&lt;b&gt;docker-compose&lt;/b&gt;" style="text;strokeColor=none;align=center;fillColor=none;html=1;verticalAlign=middle;whiteSpace=wrap;rounded=0;" parent="1" vertex="1">
                    <mxGeometry x="-390" y="-300" width="100" height="30" as="geometry"/>
                </mxCell>
                <mxCell id="M-8iL-e8hG9gWh-XNSYT-22" style="edgeStyle=orthogonalEdgeStyle;rounded=0;orthogonalLoop=1;jettySize=auto;html=1;exitX=1;exitY=0.5;exitDx=0;exitDy=0;entryX=1;entryY=0.75;entryDx=0;entryDy=0;strokeColor=#0000FF;dashed=1;" parent="1" source="M-8iL-e8hG9gWh-XNSYT-5" target="NXQ0ICeZuz957poQZoaz-28" edge="1">
                    <mxGeometry relative="1" as="geometry"/>
                </mxCell>
                <mxCell id="M-8iL-e8hG9gWh-XNSYT-5" value="VictoriaMetrics Alert" style="rounded=1;whiteSpace=wrap;html=1;fontSize=16;" parent="1" vertex="1">
                    <mxGeometry x="-350" y="-40" width="260" height="40" as="geometry"/>
                </mxCell>
                <mxCell id="M-8iL-e8hG9gWh-XNSYT-23" style="edgeStyle=orthogonalEdgeStyle;rounded=0;orthogonalLoop=1;jettySize=auto;html=1;exitX=1;exitY=0.5;exitDx=0;exitDy=0;entryX=1;entryY=0.25;entryDx=0;entryDy=0;strokeColor=#0000FF;dashed=1;" parent="1" source="M-8iL-e8hG9gWh-XNSYT-6" target="NXQ0ICeZuz957poQZoaz-28" edge="1">
                    <mxGeometry relative="1" as="geometry"/>
                </mxCell>
                <mxCell id="M-8iL-e8hG9gWh-XNSYT-6" value="Alertmanager" style="rounded=1;whiteSpace=wrap;html=1;fontSize=16;" parent="1" vertex="1">
                    <mxGeometry x="-350" y="12" width="260" height="40" as="geometry"/>
                </mxCell>
                <mxCell id="M-8iL-e8hG9gWh-XNSYT-21" style="edgeStyle=orthogonalEdgeStyle;rounded=0;orthogonalLoop=1;jettySize=auto;html=1;exitX=1;exitY=0.5;exitDx=0;exitDy=0;entryX=1;entryY=0.5;entryDx=0;entryDy=0;strokeColor=#0000CC;dashed=1;" parent="1" source="M-8iL-e8hG9gWh-XNSYT-10" target="NXQ0ICeZuz957poQZoaz-28" edge="1">
                    <mxGeometry relative="1" as="geometry"/>
                </mxCell>
                <mxCell id="M-8iL-e8hG9gWh-XNSYT-10" value="VictoriaMetrics Agent" style="rounded=1;whiteSpace=wrap;html=1;fontSize=16;" parent="1" vertex="1">
                    <mxGeometry x="-350" y="-90" width="260" height="40" as="geometry"/>
                </mxCell>
            </root>
        </mxGraphModel>
    </diagram>
</mxfile>